<svg width="128" height="128" viewBox="0 0 128 128" fill="none" xmlns="http://www.w3.org/2000/svg">
  <defs>
    <linearGradient id="bgGradient" x1="0%" y1="0%" x2="100%" y2="100%">
      <stop offset="0%" stop-color="#667eea"/>
      <stop offset="100%" stop-color="#764ba2"/>
    </linearGradient>
    <filter id="shadow" x="-20%" y="-20%" width="140%" height="140%">
      <feDropShadow dx="0" dy="4" stdDeviation="4" flood-opacity="0.25"/>
    </filter>
  </defs>
  
  <!-- Background -->
  <circle cx="64" cy="64" r="60" fill="url(#bgGradient)" />
  
  <!-- Stylized Reddit Reader Icon: Chat bubble -->
  <path d="M64 28C44.1 28 28 41.4 28 58C28 69 36.3 78.6 48.8 83.8L44.5 96L58.5 87.5C60.3 87.8 62.1 88 64 88C83.9 88 100 74.6 100 58C100 41.4 83.9 28 64 28Z" fill="white" filter="url(#shadow)"/>
  
  <!-- Lines representing text/reading -->
  <rect x="44" y="50" width="40" height="6" rx="3" fill="url(#bgGradient)" fill-opacity="0.9"/>
  <rect x="44" y="64" width="28" height="6" rx="3" fill="url(#bgGradient)" fill-opacity="0.7"/>
  
  <!-- AI Sparkle elements -->
  <!-- Large Sparkle -->
  <path d="M100 20L103 32L115 35L103 38L100 50L97 38L85 35L97 32L100 20Z" fill="#FFD700" stroke="white" stroke-width="1.5"/>
  <!-- Small Sparkle -->
  <path d="M30 30L32 24L34 30L40 32L34 34L32 40L30 34L24 32L30 30Z" fill="white" fill-opacity="0.9"/>
</svg>